<?xml version="1.0" encoding="utf-8"?>
<!-- Generator: Adobe Illustrator 17.0.0, SVG Export Plug-In . SVG Version: 6.00 Build 0)  -->
<!DOCTYPE svg PUBLIC "-//W3C//DTD SVG 1.1//EN" "http://www.w3.org/Graphics/SVG/1.1/DTD/svg11.dtd">
<svg version="1.1" id="Layer_1" xmlns="http://www.w3.org/2000/svg" xmlns:xlink="http://www.w3.org/1999/xlink" x="0px" y="0px"
	 width="41px" height="28px" viewBox="0 0 41 28" enable-background="new 0 0 41 28" xml:space="preserve">
<g>
	<path fill="#A8A8A8" stroke="#000000" stroke-miterlimit="10" d="M40.5,22.7c0,4.8-0.8,4.8-5.7,4.8H5.4c-4.8,0-4.9,0-4.9-4.8V5.3
		c0-4.8,0.1-4.8,4.9-4.8h29.4c5.1,0,5.7,0,5.7,4.8V22.7z"/>
	<polygon fill="#F2F2F2" stroke="#000000" stroke-miterlimit="10" points="35.5,19.5 29.5,19.5 29.5,21.5 25.5,21.5 25.5,25.5 
		15.5,25.5 15.5,21.5 11.5,21.5 11.5,19.5 5.5,19.5 5.5,2.5 35.5,2.5 	"/>
	<rect x="29.5" y="21.5" fill="#7FCC3D" stroke="#000000" stroke-miterlimit="10" width="5" height="4"/>
	<rect x="9.5" y="2.3" fill="#AFB2AF" stroke="#000000" stroke-miterlimit="10" width="0" height="6.1"/>
	<rect x="11.5" y="2.5" fill="#AFB2AF" stroke="#000000" stroke-miterlimit="10" width="1" height="6"/>
	<rect x="13.5" y="2.5" fill="#AFB2AF" stroke="#000000" stroke-miterlimit="10" width="2" height="6"/>
	<rect x="16.5" y="2.5" fill="#AFB2AF" stroke="#000000" stroke-miterlimit="10" width="1" height="6"/>
	<rect x="18.5" y="2.5" fill="#AFB2AF" stroke="#000000" stroke-miterlimit="10" width="1" height="6"/>
	<rect x="21.5" y="2.5" fill="#AFB2AF" stroke="#000000" stroke-miterlimit="10" width="1" height="6"/>
	<rect x="23.5" y="2.5" fill="#AFB2AF" stroke="#000000" stroke-miterlimit="10" width="1" height="6"/>
	<rect x="26.5" y="2.5" fill="#AFB2AF" stroke="#000000" stroke-miterlimit="10" width="1" height="6"/>
	<rect x="28.5" y="2.5" fill="#AFB2AF" stroke="#000000" stroke-miterlimit="10" width="1" height="6"/>
	<rect x="31.5" y="2.5" fill="#AFB2AF" stroke="#000000" stroke-miterlimit="10" width="0" height="6"/>
	<rect x="5.5" y="21.5" fill="#7FCC3D" stroke="#000000" stroke-miterlimit="10" width="5" height="4"/>
</g>
<g>
</g>
<g>
</g>
<g>
</g>
<g>
</g>
<g>
</g>
<g>
</g>
<g>
</g>
<g>
</g>
<g>
</g>
<g>
</g>
<g>
</g>
<g>
</g>
<g>
</g>
<g>
</g>
<g>
</g>
</svg>
