<?xml version="1.0" encoding="utf-8"?>
<!-- Generator: Adobe Illustrator 17.0.0, SVG Export Plug-In . SVG Version: 6.00 Build 0)  -->
<!DOCTYPE svg PUBLIC "-//W3C//DTD SVG 1.1//EN" "http://www.w3.org/Graphics/SVG/1.1/DTD/svg11.dtd">
<svg version="1.1" id="Layer_1" xmlns="http://www.w3.org/2000/svg" xmlns:xlink="http://www.w3.org/1999/xlink" x="0px" y="0px"
	 width="175.6px" height="61.8px" viewBox="0 0 175.6 61.8" enable-background="new 0 0 175.6 61.8" xml:space="preserve">
<g>
	<g>
		<path fill="#FFFFFF" d="M45.6,48.9h-5V28.3c0-5,0-10.5,0.1-14.9c-1.3,4.3-3.2,9.9-4.9,14.8l-7.1,20.6h-6.2l-7.2-20.7
			c-1.6-4.7-3.5-10.3-4.7-14.6c0.1,4.3,0.1,9.8,0.1,14.7v20.5h-5V9H14l11.8,35.7L37.5,9h8V48.9z"/>
	</g>
	<g>
		<path fill="#FFFFFF" d="M79.1,48.9h-5V31.4h-22v17.5h-5V9h5v18.3h22V9h5V48.9z"/>
	</g>
	<g>
		<path fill="#F1654C" d="M107.1,49.8H82.4V9h1.4v39.3h23.2V49.8z M107.1,47.7H84.6V9h1.2v37.5h21.3L107.1,47.7z M107.1,45.9H86.3V9
			h1v35.9l19.7-0.1L107.1,45.9z M107.1,44.2h-19V9h0.8v34.3h18.2V44.2z M107.1,42.6H89.7V9h0.7v32.8h16.7V42.6z M107.1,40.8H91.4V9
			H92v31.2h15.2V40.8z M107.1,39.1H93.2V9h0.5v29.6h13.4V39.1z"/>
		<path fill="#F1654C" d="M123.6,8.2c1.9,0,3.6,0.3,5.3,1c1.7,0.7,3.2,1.6,4.4,2.9c1.3,1.2,2.3,2.6,3,4.2c0.7,1.6,1.1,3.4,1.1,5.2
			l-0.1,28.3H136V21.5c0-2.2-0.6-4.2-1.7-6.1c-1.1-1.8-2.6-3.3-4.5-4.4s-4-1.6-6.2-1.6c-1.6,0-3.1,0.3-4.5,0.9
			c-1.4,0.6-2.7,1.4-3.8,2.5s-1.9,2.2-2.5,3.6c-0.6,1.4-0.9,2.8-0.9,4.4v7.6h0.6v-7.4c0-1.9,0.5-3.8,1.5-5.5c1-1.7,2.4-3,4.1-4
			c1.7-1,3.6-1.5,5.5-1.5c1.6,0,3.1,0.3,4.5,0.9c1.4,0.6,2.7,1.4,3.7,2.4c1.1,1,1.9,2.3,2.6,3.7c0.6,1.4,0.9,2.9,0.9,4.4v28.2h-1.1
			V21.5c0-1.8-0.5-3.5-1.4-5.1c-0.9-1.6-2.2-2.8-3.9-3.7c-1.6-0.9-3.4-1.4-5.3-1.4c-1.8,0.1-3.5,0.5-5,1.4s-2.8,2-3.7,3.5
			c-0.9,1.5-1.4,3.1-1.4,4.8v7.5h0.6v-7.9c0-2.4,0.9-4.5,2.8-6.1c1.9-1.6,4.1-2.5,6.6-2.5c1.8,0,3.4,0.4,4.9,1.3
			c1.5,0.9,2.7,2,3.6,3.5s1.3,3.1,1.3,4.8v28.2h-1V21.5c0-1.2-0.2-2.3-0.7-3.4s-1.1-2-1.9-2.8c-0.8-0.8-1.7-1.4-2.8-1.9
			c-1.1-0.5-2.2-0.7-3.4-0.7c-1.5,0-2.9,0.4-4.2,1.1c-1.3,0.7-2.3,1.7-3.1,2.9c-0.8,1.2-1.2,2.5-1.2,4l0.1,7.7h0.8v-7.7
			c0-1.3,0.4-2.6,1.1-3.6c0.7-1.1,1.7-1.9,2.9-2.6c1.2-0.6,2.5-0.9,3.8-1c1.4,0,2.8,0.4,4,1.1c1.2,0.7,2.2,1.7,2.9,2.9
			s1.1,2.5,1.1,3.9v28.2h-1V21.5c0-1-0.2-1.9-0.5-2.7c-0.4-0.9-0.9-1.6-1.5-2.3c-0.7-0.7-1.4-1.2-2.3-1.6s-1.8-0.6-2.7-0.6
			c-1.2,0-2.4,0.3-3.4,0.9c-1.1,0.6-1.9,1.3-2.5,2.3c-0.6,1-1,2.1-1,3.2v7.7h0.9v-7.7c0-1.6,0.6-2.9,1.8-3.9
			c1.2-1.1,2.6-1.6,4.3-1.6c1.8,0,3.2,0.6,4.5,1.8c1.2,1.2,1.8,2.7,1.8,4.4v28.2h-0.6V21.4c0-1-0.3-1.9-0.8-2.8
			c-0.5-0.8-1.2-1.5-2.1-2c-0.9-0.5-1.8-0.7-2.8-0.7c-0.9,0-1.8,0.2-2.6,0.7c-0.8,0.4-1.5,1-2,1.7c-0.5,0.7-0.8,1.6-0.8,2.5v7.7h1
			v-7.8c0-1.1,0.5-2,1.4-2.7c0.9-0.7,2-1.1,3.2-1.1c1.3,0,2.4,0.4,3.3,1.3c0.9,0.9,1.4,2,1.4,3.2v28.2h-0.5V21.4
			c0-1.1-0.4-2-1.2-2.8c-0.8-0.8-1.8-1.1-2.9-1.1c-1,0-2,0.4-2.7,1c-0.8,0.6-1.2,1.4-1.2,2.3v7.7h1.2v-7.3c0-0.7,0.3-1.3,0.8-1.8
			c0.5-0.5,1.1-0.7,1.9-0.8c0.8,0,1.5,0.3,2.1,0.8c0.6,0.5,0.9,1.2,0.9,2v28.3h-0.5V39.6h-4.7v10.2h-0.5V39h5.1v-1.1h-6.2v11.9h-0.6
			V37.2h6.8v-0.9h-7.8v13.4h-0.7l0.1-14.3h8.4v-0.7h-9.3v15H116V34h10.1v-0.7h-10.9v16.4h-1V32.3h12v-0.6h-12.6v18.1h-1.2V30.5h13.8
			v-0.6h-14.4v19.9h-1.4V20.8c0-2.3,0.6-4.4,1.8-6.3c1.2-1.9,2.8-3.4,4.8-4.6C119.1,8.8,121.2,8.2,123.6,8.2z M121.5,21v7.5h4.7
			v-7.2c0-0.6-0.3-1.1-0.8-1.5c-0.5-0.4-1.1-0.6-1.7-0.6c-0.5,0-1,0.2-1.5,0.6C121.8,20.1,121.5,20.5,121.5,21z"/>
		<path fill="#F1654C" d="M142.3,11.5v38.3h-1.4V8.3l21.8,18.4V9.2h1.4v20.6L142.3,11.5z M144.2,15.3v34.4h-1.3v-37l21.8,18.4v-22
			h1.2v24.6L144.2,15.3z M145.8,18.8v31h-1V16.7l21.8,18.5v-26h1v28L145.8,18.8z M147.3,22.1v27.7h-0.8V20.5L168.3,39V9.2h0.8v31.5
			L147.3,22.1z M148.8,25.6v24.2h-0.7V23.9l21.8,18.6V9.2h0.7v34.9L148.8,25.6z M150.4,28.7v21h-0.6V27.6l21.8,18.8V9.2h0.6v38.2
			L150.4,28.7z M152.1,32.3v17.5h-0.5V31.4l21.8,18.7V9.2h0.5V51L152.1,32.3z"/>
	</g>
</g>
<g>
</g>
<g>
</g>
<g>
</g>
<g>
</g>
<g>
</g>
<g>
</g>
<g>
</g>
<g>
</g>
<g>
</g>
<g>
</g>
<g>
</g>
<g>
</g>
<g>
</g>
<g>
</g>
<g>
</g>
</svg>
