<?xml version="1.0" encoding="utf-8"?>
<!-- Generator: Adobe Illustrator 17.0.0, SVG Export Plug-In . SVG Version: 6.00 Build 0)  -->
<!DOCTYPE svg PUBLIC "-//W3C//DTD SVG 1.1//EN" "http://www.w3.org/Graphics/SVG/1.1/DTD/svg11.dtd">
<svg version="1.1" id="Layer_1" xmlns="http://www.w3.org/2000/svg" xmlns:xlink="http://www.w3.org/1999/xlink" x="0px" y="0px"
	 width="301.8px" height="534.5px" viewBox="0 0 301.8 534.5" enable-background="new 0 0 301.8 534.5" xml:space="preserve">
<g>
	<g>
		<path fill="#FF5959" d="M94.3,305.5H24.1v-116h4.1v111.9h66.1V305.5z M94.4,299.6H30.2V189.5h3.5v106.7h60.6L94.4,299.6z
			 M94.4,294.4H35.1V189.5H38v102.2l56.3-0.1L94.4,294.4z M94.4,289.6H40.3v-100h2.2v97.6h51.9V289.6z M94.4,285.1H44.9v-95.5h2
			v93.4h47.6V285.1z M94.4,280H49.8v-90.5h1.5v88.9h43.2V280z M94.4,275.3H54.7v-85.7h1.4v84.2h38.3V275.3z"/>
		<path fill="#FF5959" d="M141.4,187c5.3,0,10.3,1,15.1,3c4.8,2,9,4.7,12.6,8.1c3.6,3.4,6.5,7.5,8.5,12.1c2.1,4.6,3.1,9.6,3.1,14.8
			l-0.1,80.5h-4v-80.4c0-6.3-1.6-12-4.7-17.3c-3.2-5.2-7.5-9.4-12.9-12.5c-5.4-3.1-11.3-4.6-17.8-4.6c-4.5,0-8.8,0.9-12.9,2.7
			c-4.1,1.7-7.7,4.1-10.8,7c-3.1,3-5.5,6.4-7.2,10.3c-1.8,3.9-2.6,8.1-2.6,12.5v21.7h1.8v-21c0-5.5,1.4-10.7,4.3-15.5
			c2.9-4.8,6.8-8.6,11.8-11.5c4.9-2.8,10.2-4.3,15.8-4.3c4.5,0,8.8,0.8,12.8,2.5c4,1.7,7.6,4,10.6,6.9c3.1,3,5.5,6.4,7.3,10.4
			c1.8,4,2.6,8.2,2.6,12.6v80.4h-3v-80.4c0-5.2-1.3-10.1-4-14.6c-2.7-4.5-6.4-8-11-10.6c-4.7-2.6-9.7-3.9-15.1-3.9
			c-5.1,0.1-9.9,1.4-14.3,3.9c-4.4,2.4-7.9,5.8-10.4,10c-2.6,4.2-3.9,8.8-3.9,13.7v21.4h1.7v-22.5c0-6.9,2.7-12.7,8-17.4
			c5.3-4.7,11.6-7.1,18.8-7.2c5,0,9.7,1.2,14,3.7c4.3,2.4,7.8,5.8,10.3,9.9c2.5,4.2,3.8,8.8,3.8,13.8v80.2h-2.7v-80.4
			c0-3.4-0.7-6.6-2-9.6s-3.1-5.7-5.4-7.9c-2.3-2.2-4.9-4-8.1-5.3c-3.1-1.3-6.4-2-9.8-2c-4.3,0-8.2,1.1-11.9,3.1
			c-3.7,2-6.7,4.7-8.9,8.2c-2.3,3.5-3.4,7.2-3.4,11.4l0.1,22h2.2v-21.9c0-3.8,1-7.3,3-10.4c2-3.1,4.7-5.6,8.1-7.3
			c3.4-1.8,7-2.7,10.9-2.8c4.1,0,7.8,1,11.4,3c3.5,2,6.3,4.7,8.4,8.2c2.1,3.5,3.1,7.2,3.1,11.2v80.4H162v-80.4
			c0-2.8-0.5-5.4-1.5-7.8c-1-2.4-2.5-4.6-4.4-6.5c-1.9-1.9-4.1-3.4-6.6-4.5c-2.5-1.1-5.1-1.6-7.8-1.6c-3.5,0.1-6.8,1-9.8,2.6
			c-3,1.6-5.4,3.8-7.2,6.6c-1.8,2.8-2.7,5.9-2.7,9.2v21.9h2.4v-21.9c0-4.5,1.7-8.2,5.2-11.2c3.5-3,7.5-4.6,12.2-4.6
			c5,0,9.2,1.7,12.7,5.2c3.5,3.4,5.2,7.7,5.2,12.7v80.4h-1.7v-80.7c0-2.9-0.7-5.5-2.2-7.9c-1.5-2.4-3.5-4.3-6-5.7
			c-2.5-1.4-5.2-2.1-8.1-2.1c-2.6,0-5.1,0.7-7.5,1.9c-2.4,1.2-4.3,2.8-5.8,4.9c-1.5,2.1-2.2,4.4-2.2,7v22h2.7v-22.2
			c0-3.1,1.3-5.6,3.9-7.6c2.6-2,5.6-3,9-3c3.6,0,6.7,1.2,9.3,3.7c2.6,2.5,3.9,5.6,3.9,9.2v80.4h-1.6v-80.7c0-3.1-1.2-5.8-3.5-7.9
			c-2.3-2.2-5.1-3.2-8.3-3.2c-3,0.1-5.6,1-7.8,2.8c-2.2,1.8-3.3,4-3.3,6.6v21.9h3.3v-20.9c0-2,0.7-3.6,2.2-5
			c1.5-1.4,3.3-2.1,5.3-2.3c2.3,0,4.3,0.8,6,2.3c1.7,1.6,2.6,3.4,2.6,5.6v80.7h-1.3v-29h-13.3v29h-1.5v-30.7h14.4v-3h-17.7v33.8
			h-1.7v-35.7h19.4v-2.6h-22.2v38.3h-1.9l0.1-40.6h24v-2.1H122v42.7h-2.2v-45h28.7v-1.9h-30.9v46.8h-2.9v-49.9h34.1v-1.8H113v51.7
			h-3.5v-54.8h39.3V249h-41v56.5h-4v-82.4c0-6.6,1.7-12.6,5.2-18.1c3.5-5.5,8.1-9.8,13.8-13C128.5,188.9,134.7,187.2,141.4,187z
			 M135.5,223.6v21.4h13.3v-20.6c0-1.7-0.7-3.2-2.2-4.3c-1.5-1.2-3.1-1.7-4.9-1.7c-1.5,0.1-3,0.6-4.3,1.6
			C136.1,221,135.5,222.2,135.5,223.6z"/>
		<path fill="#FF5959" d="M194.6,196.4v109.1h-4.1V187.5l62,52.5v-49.9h4.1v58.8L194.6,196.4z M200,207.5v98h-3.6V200.2l62,52.5
			v-62.7h3.5v70.1L200,207.5z M204.5,217.2v88.3h-2.9v-94.2l62,52.8v-74h2.7v79.8L204.5,217.2z M208.9,226.6v78.9h-2.2v-83.4
			l62,52.7v-84.7h2.3v89.6L208.9,226.6z M213.2,236.7v68.9h-2V232l62,52.8v-94.8h1.9v99.4L213.2,236.7z M217.7,245.6v59.9h-1.6
			v-63.2l62,53.5V190.1h1.7V299L217.7,245.6z M222.4,255.8v49.7H221v-52.3l62,53.2V190.1h1.3v119.1L222.4,255.8z"/>
	</g>
	<g>
		<path fill="#FFFFFF" d="M26,157.3v28.2H22v-60H26v28.2h18.7v-28.2h4v60h-4v-28.2H26z"/>
		<path fill="#FFFFFF" d="M61.3,172.2l-3,13.3h-3.6l13.1-60.1h5.7l13.4,60.1H83l-3-13.3H61.3z M61.9,168.8h17.5L70.5,130L61.9,168.8
			z"/>
		<path fill="#FFFFFF" d="M105.4,125.5c9.2,0,12.9,5.1,12.9,13.5v5.2c0,7-2.7,11.1-8.7,12.4c6.2,1.4,8.7,5.7,8.7,12.3v9.3
			c0,2.5,0.2,5.2,1.5,7.2h-4.1c-1-1.8-1.3-3.9-1.3-7.2v-9.4c0-8-4.4-10.2-11.2-10.2h-6.3v26.8h-3.9v-60H105.4z M103.2,155.1
			c7,0,11.1-2,11.1-10v-5.7c0-6.4-2.5-10.3-9-10.3h-8.5v26H103.2z"/>
		<path fill="#FFFFFF" d="M146.2,185.4h-3.9l-12.7-53.1v53.1H126v-60h5.7l12.6,53.1l12.5-53.1h5.7v60h-3.8v-53.3L146.2,185.4z"/>
		<path fill="#FFFFFF" d="M169.3,185.5v-60h3.9v56.4h18.9v3.6H169.3z"/>
		<path fill="#FFFFFF" d="M218.3,153.3v3.6H202v25h19.7v3.6H198v-60h23.7v3.6H202v24.2H218.3z"/>
		<path fill="#FFFFFF" d="M253.4,140v1.3h-3.8v-1.5c0-6.3-2.4-11.1-8.9-11.1s-8.9,4.7-8.9,11.1c0,14.6,21.7,14.8,21.7,31.4
			c0,8.7-3.8,15-12.9,15c-9.2,0-12.9-6.3-12.9-15v-3.1h3.8v3.3c0,6.4,2.5,11.1,9.1,11.1s9.1-4.6,9.1-11.1
			c0-14.4-21.7-14.7-21.7-31.4c0-9,3.9-14.8,12.8-14.9C249.7,125,253.4,131.3,253.4,140z"/>
		<path fill="#FFFFFF" d="M285.1,140v1.3h-3.8v-1.5c0-6.3-2.4-11.1-8.9-11.1s-8.9,4.7-8.9,11.1c0,14.6,21.7,14.8,21.7,31.4
			c0,8.7-3.8,15-12.9,15c-9.2,0-12.9-6.3-12.9-15v-3.1h3.8v3.3c0,6.4,2.5,11.1,9.1,11.1s9.1-4.6,9.1-11.1
			c0-14.4-21.7-14.7-21.7-31.4c0-9,3.9-14.8,12.8-14.9C281.4,125,285.1,131.3,285.1,140z"/>
	</g>
	<g>
		<path fill="#FFFFFF" d="M50.2,104.6H45l-17-71.2v71.4h-4.7V24.2h7.6l16.9,71.2l16.8-71.2h7.6v80.6h-5.1V33.1L50.2,104.6z"/>
		<path fill="#FFFFFF" d="M81,43.8c0-11.7,5.4-20.4,17.6-20.4c12.4,0,17.8,8.6,17.8,20.4V85c0,11.7-5.4,20.4-17.8,20.4
			C86.4,105.4,81,96.8,81,85V43.8z M86.3,85.4c0,8.7,3.5,15.2,12.3,15.2c9,0,12.5-6.4,12.5-15.2V43.5c0-8.7-3.6-15.2-12.5-15.2
			c-8.9,0-12.3,6.4-12.3,15.2V85.4z"/>
		<path fill="#FFFFFF" d="M159.1,43.6v1.7h-5.1v-2.1c0-8.5-3.2-15-12-15c-8.7,0-12,6.3-12,14.8c0,19.6,29.1,19.9,29.1,42.1
			c0,11.6-5.1,20.1-17.4,20.1s-17.4-8.5-17.4-20.1v-4.1h5.1v4.5c0,8.6,3.3,14.8,12.2,14.8s12.2-6.2,12.2-14.8
			c0-19.3-29.1-19.7-29.1-42.1c0-12.1,5.3-19.9,17.1-20C154.2,23.5,159.1,32,159.1,43.6z"/>
		<path fill="#FFFFFF" d="M181.3,104.7V29H165v-4.8h38.1V29h-16.5v75.7H181.3z"/>
		<path fill="#FFFFFF" d="M209.6,104.7V24.2h5.3v75.7h25.3v4.8H209.6z"/>
		<path fill="#FFFFFF" d="M257.6,73.8l-18.1-49.6h5.5l15.4,42.4l15.4-42.4h5.2l-18.2,49.6v31h-5.3V73.8z"/>
	</g>
	<g opacity="5.000000e-02">
		<path fill="#FFD9D9" d="M94.3,313.6H28.2v194.4h-4.1V306.5h70.2V313.6z M94.3,322.6H33.7v185.3h-3.5V316.8h64.3L94.3,322.6z
			 M94.3,330.7L38,330.5v177.5h-2.9V325.8h59.3L94.3,330.7z M94.4,338.5H42.5v169.5h-2.2V334.2h54.1V338.5z M94.4,345.8H46.9v162.1
			h-2V342.1h49.6V345.8z M94.4,353.5H51.2v154.4h-1.5V350.8h44.7V353.5z M94.4,361.7H56.1v146.3h-1.4V359.1h39.7V361.7z"/>
		<path fill="#FFD9D9" d="M122.7,503.6c-5.7-5.6-10.3-13.1-13.8-22.6c-3.5-9.5-5.2-20-5.2-31.4V306.5h4v98.2h41v-3h-39.3v-95.2h3.5
			v89.7h35.8v-3.1h-34.1v-86.6h2.9v81.3h30.9v-3.2h-28.7v-78.1h2.2v74.1h26.6V377h-24l-0.1-70.5h1.9V373h22.2v-4.5h-19.4v-62h1.7
			v58.6h17.7v-5.3h-14.4v-53.4h1.5v50.4h13.3v-50.4h1.3v140.1c0,3.8-0.9,7-2.6,9.7c-1.7,2.7-3.7,4.1-6,4.1c-2.1-0.3-3.9-1.6-5.3-3.9
			c-1.5-2.4-2.2-5.3-2.2-8.7v-36.2h-3.3v38c0,4.6,1.1,8.4,3.3,11.5c2.2,3.1,4.8,4.7,7.8,4.9c3.2,0,6-1.9,8.3-5.6
			c2.3-3.7,3.5-8.3,3.5-13.7V306.5h1.6v139.6c0,6.3-1.3,11.6-3.9,15.9c-2.6,4.3-5.7,6.5-9.3,6.5c-3.4,0-6.4-1.7-9-5.2
			c-2.6-3.5-3.9-7.9-3.9-13.2v-38.5h-2.7v38.3c0,4.5,0.7,8.5,2.2,12.2c1.5,3.7,3.4,6.5,5.8,8.6c2.4,2.1,4.9,3.1,7.5,3.2
			c2.9,0,5.6-1.2,8.1-3.7c2.5-2.4,4.5-5.7,6-9.9c1.5-4.1,2.2-8.7,2.2-13.7V306.5h1.7v139.6c0,8.7-1.7,16-5.2,22c-3.5,6-7.7,9-12.7,9
			c-4.7,0-8.8-2.6-12.2-7.9c-3.5-5.3-5.2-11.8-5.2-19.5v-38H122v38c0,5.8,0.9,11.2,2.7,16c1.8,4.9,4.2,8.7,7.2,11.5
			c3,2.8,6.3,4.3,9.8,4.4c2.7,0,5.3-0.9,7.8-2.8c2.5-1.8,4.7-4.4,6.6-7.7c1.9-3.3,3.4-7.1,4.4-11.3c1-4.3,1.5-8.8,1.5-13.6V306.5
			h2.7v139.6c0,7-1,13.5-3.1,19.5c-2.1,6.1-4.9,10.8-8.4,14.3c-3.5,3.5-7.3,5.2-11.4,5.2c-3.9-0.2-7.5-1.8-10.9-4.8
			c-3.4-3.1-6.1-7.3-8.1-12.7c-2-5.4-3-11.4-3-18v-38h-2.2l-0.1,38.3c0,7.1,1.1,13.7,3.4,19.7c2.3,6,5.2,10.8,8.9,14.2
			c3.7,3.5,7.7,5.3,11.9,5.3c3.4,0,6.7-1.1,9.8-3.4c3.1-2.3,5.8-5.3,8.1-9.2c2.2-3.9,4-8.4,5.4-13.7s2-10.8,2-16.7V306.5h2.7v139.3
			c0,8.7-1.3,16.6-3.8,23.9c-2.5,7.3-6,13-10.3,17.3c-4.3,4.3-9,6.4-14,6.4c-7.2-0.2-13.5-4.3-18.8-12.5c-5.3-8.2-8-18.3-8-30.3
			v-39.1H113v37.2c0,8.5,1.3,16.4,3.9,23.7c2.6,7.3,6,13.1,10.4,17.3c4.4,4.3,9.1,6.5,14.3,6.8c5.4,0,10.4-2.3,15.1-6.8
			c4.6-4.5,8.3-10.7,11-18.4c2.7-7.8,4-16.2,4-25.3V306.5h3v139.6c0,7.6-0.9,14.9-2.6,21.8c-1.8,6.9-4.2,13-7.3,18.1
			c-3.1,5.2-6.6,9.2-10.6,12c-4,2.9-8.3,4.3-12.8,4.3c-5.6-0.1-10.9-2.6-15.8-7.5c-4.9-4.9-8.9-11.5-11.8-19.9
			c-2.9-8.4-4.3-17.4-4.3-27v-36.5h-1.8v37.8c0,7.7,0.9,15,2.6,21.7c1.8,6.7,4.2,12.7,7.2,17.8c3.1,5.2,6.7,9.2,10.8,12.2
			c4.1,3,8.4,4.6,12.9,4.6c6.4,0,12.4-2.7,17.8-8.1c5.4-5.4,9.7-12.6,12.9-21.7c3.2-9.1,4.8-19.1,4.8-30V306.5h4l0.1,139.8
			c0,9.1-1,17.7-3.1,25.7c-2.1,8-4.9,15-8.5,21c-3.6,6-7.8,10.7-12.6,14.1c-4.8,3.4-9.8,5.2-15.1,5.2
			C134.7,512.1,128.5,509.2,122.7,503.6z M137.4,455c1.3,1.7,2.7,2.6,4.3,2.8c1.8,0,3.4-1,4.9-3c1.5-2,2.2-4.5,2.2-7.5v-35.7h-13.3
			v37.2C135.5,451.3,136.1,453.4,137.4,455z"/>
		<path fill="#FFD9D9" d="M256.6,405V507h-4.1v-86.7l-62,91.2V306.5h4.1V496L256.6,405z M261.9,385.4V507h-3.5V398.1l-62,91.2V306.5
			h3.6v170.3L261.9,385.4z M266.4,368.5V507h-2.7V378.6l-62,91.6V306.5h2.9v153.4L266.4,368.5z M270.9,351.4V507h-2.3V359.9
			l-62,91.5V306.5h2.2v137L270.9,351.4z M275.1,334.5V507h-1.9V342.5l-62,91.8V306.5h2v119.6L275.1,334.5z M279.7,317.8V507H278
			V323.4l-62,92.9V306.5h1.6v104L279.7,317.8z M284.4,300.2V507h-1.3V305l-62,92.4v-90.9h1.4v86.4L284.4,300.2z"/>
	</g>
	<g>
		<path fill="#FFFFFF" d="M71.1,397.3v1.9h-1.5v-2c0-2.5-1-4.4-3.5-4.4s-3.5,1.9-3.5,4.4v12c0,2.5,1,4.3,3.5,4.3s3.5-1.9,3.5-4.3
			v-2.7h1.5v2.6c0,3.3-1.5,5.9-5,5.9s-5-2.5-5-5.9v-11.8c0-3.3,1.5-5.9,5-5.9S71.1,394,71.1,397.3z"/>
		<path fill="#FFFFFF" d="M75.1,403.9v10.9h-1.5v-23.2h1.5v10.9h7.2v-10.9h1.6v23.2h-1.6v-10.9H75.1z"/>
		<path fill="#FFFFFF" d="M94.4,402.4v1.4h-6.3v9.7h7.6v1.4h-9.1v-23.2h9.1v1.4h-7.6v9.3H94.4z"/>
		<path fill="#FFFFFF" d="M107.9,397.2v0.5h-1.5v-0.6c0-2.4-0.9-4.3-3.4-4.3s-3.4,1.8-3.4,4.3c0,5.6,8.4,5.7,8.4,12.1
			c0,3.3-1.5,5.8-5,5.8s-5-2.4-5-5.8V408h1.5v1.3c0,2.5,1,4.3,3.5,4.3s3.5-1.8,3.5-4.3c0-5.6-8.4-5.7-8.4-12.1
			c0-3.5,1.5-5.7,4.9-5.8C106.5,391.4,107.9,393.9,107.9,397.2z"/>
		<path fill="#FFFFFF" d="M114.3,414.8V393h-4.7v-1.4h11v1.4h-4.7v21.8H114.3z"/>
		<path fill="#FFFFFF" d="M130.3,402.4v1.4H124v9.7h7.6v1.4h-9.1v-23.2h9.1v1.4H124v9.3H130.3z"/>
		<path fill="#FFFFFF" d="M138.9,391.6c3.5,0,5,2,5,5.2v2c0,2.7-1.1,4.3-3.3,4.8c2.4,0.5,3.3,2.2,3.3,4.7v3.6c0,1,0.1,2,0.6,2.8
			h-1.6c-0.4-0.7-0.5-1.5-0.5-2.8v-3.6c0-3.1-1.7-3.9-4.3-3.9h-2.4v10.4h-1.5v-23.2H138.9z M138,403.1c2.7,0,4.3-0.8,4.3-3.9V397
			c0-2.5-1-4-3.5-4h-3.3v10H138z"/>
		<path fill="#FFFFFF" d="M159.7,414.8h-1.5l-4.9-20.5v20.5H152v-23.2h2.2l4.9,20.5l4.8-20.5h2.2v23.2h-1.5v-20.6L159.7,414.8z"/>
		<path fill="#FFFFFF" d="M168.6,397.3c0-3.4,1.6-5.9,5.1-5.9c3.6,0,5.1,2.5,5.1,5.9v11.8c0,3.4-1.6,5.9-5.1,5.9
			c-3.5,0-5.1-2.5-5.1-5.9V397.3z M170.1,409.2c0,2.5,1,4.4,3.5,4.4c2.6,0,3.6-1.9,3.6-4.4v-12c0-2.5-1-4.4-3.6-4.4
			c-2.5,0-3.5,1.9-3.5,4.4V409.2z"/>
		<path fill="#FFFFFF" d="M191,397.2v0.5h-1.5v-0.6c0-2.4-0.9-4.3-3.4-4.3c-2.5,0-3.4,1.8-3.4,4.3c0,5.6,8.4,5.7,8.4,12.1
			c0,3.3-1.5,5.8-5,5.8c-3.5,0-5-2.4-5-5.8V408h1.5v1.3c0,2.5,1,4.3,3.5,4.3s3.5-1.8,3.5-4.3c0-5.6-8.4-5.7-8.4-12.1
			c0-3.5,1.5-5.7,4.9-5.8C189.6,391.4,191,393.9,191,397.2z"/>
		<path fill="#FFFFFF" d="M203.3,397.2v0.5h-1.5v-0.6c0-2.4-0.9-4.3-3.4-4.3c-2.5,0-3.4,1.8-3.4,4.3c0,5.6,8.4,5.7,8.4,12.1
			c0,3.3-1.5,5.8-5,5.8s-5-2.4-5-5.8V408h1.5v1.3c0,2.5,1,4.3,3.5,4.3s3.5-1.8,3.5-4.3c0-5.6-8.4-5.7-8.4-12.1
			c0-3.5,1.5-5.7,4.9-5.8C201.8,391.4,203.3,393.9,203.3,397.2z"/>
		<path fill="#FFFFFF" d="M213.5,414.8H212l-4.9-20.5v20.5h-1.4v-23.2h2.2l4.9,20.5l4.8-20.5h2.2v23.2h-1.5v-20.6L213.5,414.8z"/>
		<path fill="#FFFFFF" d="M224.7,409.7l-1.2,5.1h-1.4l5.1-23.2h2.2l5.2,23.2H233l-1.2-5.1H224.7z M224.9,408.3h6.7l-3.4-15
			L224.9,408.3z"/>
		<path fill="#FFFFFF" d="M238.3,414.8h-1.4v-23.2h2l6.9,19.6v-19.6h1.4v23.2h-1.7l-7.2-20.6V414.8z"/>
	</g>
	<g>
		<path fill="#FFFFFF" d="M62.8,496.8v-29.4h1.9V495h9.2v1.8H62.8z"/>
		<path fill="#FFFFFF" d="M78.7,489.7c0,3.1,1.2,5.6,4.4,5.6s4.4-2.4,4.4-5.6v-22.3h1.8v22.2c0,4.2-1.8,7.4-6.3,7.4
			c-4.5,0-6.3-3.2-6.3-7.4v-22.2h1.9V489.7z"/>
		<path fill="#FFFFFF" d="M94.4,496.8h-1.8v-29.4h2.5l8.8,24.8v-24.8h1.8v29.4h-2.1l-9.2-26.2V496.8z"/>
		<path fill="#FFFFFF" d="M119,481v1.8h-8V495h9.7v1.8H109v-29.4h11.6v1.8h-9.7V481H119z"/>
		<path fill="#FFFFFF" d="M125.5,496.8h-1.8v-29.4h2.5l8.8,24.8v-24.8h1.8v29.4h-2.1l-9.2-26.2V496.8z"/>
		<path fill="#FFFFFF" d="M146.3,467.4c4.4,0,6,2.2,6,6.3v1.7c0,3.2-0.9,5.2-3.9,5.8c3.2,0.6,4.4,3,4.4,6.3v2.6
			c0,4.2-1.9,6.8-6.4,6.8h-6.3v-29.4H146.3z M145.4,480.4c3.4,0,5-0.9,5-4.7v-1.9c0-3.1-1-4.7-4.1-4.7h-4.2v11.2H145.4z M146.4,495
			c3.2,0,4.5-1.8,4.5-5.1v-2.6c0-3.8-1.7-5.2-5.2-5.2h-3.7V495H146.4z"/>
		<path fill="#FFFFFF" d="M157.9,489.7c0,3.1,1.2,5.6,4.4,5.6c3.2,0,4.4-2.4,4.4-5.6v-22.3h1.8v22.2c0,4.2-1.8,7.4-6.3,7.4
			s-6.3-3.2-6.3-7.4v-22.2h1.9V489.7z"/>
		<path fill="#FFFFFF" d="M177.9,467.4c4.5,0,6.3,2.5,6.3,6.6v2.6c0,3.4-1.3,5.4-4.2,6.1c3,0.7,4.2,2.8,4.2,6v4.6
			c0,1.2,0.1,2.6,0.7,3.5h-2c-0.5-0.9-0.6-1.9-0.6-3.5v-4.6c0-3.9-2.1-5-5.5-5h-3.1v13.1h-1.9v-29.4H177.9z M176.8,481.9
			c3.4,0,5.5-1,5.5-4.9v-2.8c0-3.1-1.2-5-4.4-5h-4.2v12.7H176.8z"/>
		<path fill="#FFFFFF" d="M200.5,474.6v2.2h-1.8v-2.3c0-3.1-1.2-5.5-4.4-5.5s-4.4,2.4-4.4,5.5v15.3c0,3.1,1.2,5.5,4.4,5.5
			s4.4-2.3,4.4-5.5v-6.3h-3.9v-1.8h5.7v8c0,4.2-1.8,7.4-6.3,7.4s-6.3-3.2-6.3-7.4v-15c0-4.2,1.8-7.4,6.3-7.4
			S200.5,470.3,200.5,474.6z"/>
		<path fill="#FFFFFF" d="M204.4,496.8h-0.6v-3.7h1.8v3.5l-1.2,3.4h-0.8L204.4,496.8z"/>
		<path fill="#FFFFFF" d="M225.3,496.7h-1.9l-6.2-26v26h-1.7v-29.4h2.8l6.2,26l6.1-26h2.8v29.4h-1.8v-26.1L225.3,496.7z"/>
		<path fill="#FFFFFF" d="M239.5,490.3l-1.5,6.5h-1.8l6.4-29.4h2.8l6.5,29.4h-1.9l-1.5-6.5H239.5z M239.8,488.6h8.6l-4.3-19
			L239.8,488.6z"/>
	</g>
	<g>
		<path fill="#FFFFFF" d="M65.1,459.6V428h-6.5v-3.6h16.9v3.6H69v31.6H65.1z"/>
		<path fill="#FFFFFF" d="M90.7,440v3.5h-8.6V456h10.6v3.6H78.2v-35.2h14.5v3.6H82.1v12H90.7z"/>
		<path fill="#FFFFFF" d="M108.8,440v3.5h-8.6V456h10.6v3.6H96.3v-35.2h14.5v3.6h-10.6v12H108.8z"/>
		<path fill="#FFFFFF" d="M117.8,459.6h-3.5v-35.2h5l8.1,25.4v-25.4h3.5v35.2h-4.1l-9-28.4V459.6z"/>
		<path fill="#FFFFFF" d="M150.3,424.1c2.7,0,4.7,0.8,6,2.4c1.3,1.6,1.9,3.8,1.9,6.4v3.2h-3.7v-3.4c0-1.6-0.3-2.9-1-3.7
			s-1.7-1.3-3.1-1.3c-1.4,0-2.4,0.4-3.1,1.3c-0.7,0.9-1,2.1-1,3.7v18.6c0,1.6,0.3,2.9,1,3.7c0.7,0.9,1.7,1.3,3.1,1.3
			c1.4,0,2.5-0.4,3.1-1.3s1-2.1,1-3.7v-4.6h3.7v4.4c0,2.7-0.6,4.8-1.9,6.4s-3.3,2.4-6,2.4c-2.7,0-4.7-0.8-6-2.4s-1.9-3.8-1.9-6.4
			v-18.2c0-1.3,0.2-2.6,0.5-3.6c0.3-1.1,0.8-2,1.5-2.8s1.5-1.4,2.5-1.8S149,424.1,150.3,424.1z"/>
		<path fill="#FFFFFF" d="M174.3,440v3.5h-8.6V456h10.6v3.6h-14.5v-35.2h14.5v3.6h-10.6v12H174.3z"/>
		<path fill="#FFFFFF" d="M183.4,459.6h-3.5v-35.2h5l8.1,25.4v-25.4h3.5v35.2h-4.1l-9-28.4V459.6z"/>
		<path fill="#FFFFFF" d="M205.5,459.6V428H199v-3.6h16.8v3.6h-6.5v31.6H205.5z"/>
		<path fill="#FFFFFF" d="M231.1,440v3.5h-8.6V456H233v3.6h-14.5v-35.2H233v3.6h-10.6v12H231.1z"/>
		<path fill="#FFFFFF" d="M244.5,424.4c2.8,0,4.8,0.7,6,2.1c1.2,1.4,1.8,3.4,1.8,6v2.9c0,1.9-0.4,3.5-1.1,4.7
			c-0.7,1.2-1.8,2-3.3,2.5c1.6,0.5,2.7,1.3,3.4,2.6c0.7,1.3,1,2.8,1,4.8v5.5c0,0.8,0,1.5,0.1,2.2c0.1,0.7,0.3,1.4,0.6,2h-4
			c-0.2-0.5-0.4-1-0.5-1.6c-0.1-0.6-0.2-1.5-0.2-2.6v-5.5c0-2-0.4-3.3-1.3-4.1c-0.9-0.8-2.2-1.1-3.8-1.1h-2.8v15h-3.9v-35.2H244.5z
			 M243.5,441c1.6,0,2.8-0.3,3.7-1s1.3-1.9,1.3-3.8v-3.4c0-1.6-0.3-2.8-0.9-3.6c-0.6-0.8-1.7-1.2-3.1-1.2h-3.8v13H243.5z"/>
	</g>
	<g>
		<g>
			<path fill="#FFFFFF" d="M65.1,337.8L64,344h-3.2l5.9-30.8h5l5.9,30.8h-3.4l-1.2-6.2H65.1z M65.6,334.8h6.9L69,317L65.6,334.8z"/>
			<path fill="#FFFFFF" d="M83.5,336.7c0,1.4,0.3,2.5,0.9,3.3c0.6,0.8,1.5,1.2,2.8,1.2c1.2,0,2.1-0.4,2.7-1.2
				c0.6-0.8,0.9-1.9,0.9-3.3v-23.6h3.2v23.4c0,2.3-0.6,4.2-1.7,5.7s-2.9,2.1-5.2,2.1c-2.3,0-4.1-0.7-5.2-2.1
				c-1.1-1.4-1.7-3.3-1.7-5.7v-23.4h3.4V336.7z"/>
			<path fill="#FFFFFF" d="M103.9,312.9c2.4,0,4.1,0.7,5.3,2.1c1.1,1.4,1.7,3.3,1.7,5.6v2.6h-3.3v-2.8c0-1.4-0.3-2.5-0.9-3.3
				c-0.6-0.8-1.5-1.2-2.8-1.2c-1.2,0-2.1,0.4-2.7,1.2c-0.6,0.8-0.9,1.9-0.9,3.3v16.3c0,1.4,0.3,2.5,0.9,3.3c0.6,0.8,1.5,1.2,2.7,1.2
				c1.3,0,2.2-0.4,2.8-1.2c0.6-0.8,0.9-1.9,0.9-3.3v-6.2h-3.2v-3.1h6.4v9.1c0,2.3-0.6,4.2-1.7,5.6c-1.1,1.4-2.9,2.1-5.3,2.1
				c-2.3,0-4.1-0.7-5.2-2.1c-1.1-1.4-1.7-3.3-1.7-5.6v-15.9c0-1.2,0.1-2.2,0.4-3.2c0.3-1,0.7-1.8,1.3-2.4c0.6-0.7,1.3-1.2,2.2-1.6
				C101.7,313,102.8,312.9,103.9,312.9z"/>
			<path fill="#FFFFFF" d="M117.4,336.7c0,1.4,0.3,2.5,0.9,3.3c0.6,0.8,1.5,1.2,2.8,1.2c1.2,0,2.1-0.4,2.7-1.2
				c0.6-0.8,0.9-1.9,0.9-3.3v-23.6h3.2v23.4c0,2.3-0.6,4.2-1.7,5.7c-1.1,1.4-2.9,2.1-5.2,2.1c-2.3,0-4.1-0.7-5.2-2.1
				c-1.1-1.4-1.7-3.3-1.7-5.7v-23.4h3.4V336.7z"/>
			<path fill="#FFFFFF" d="M137.7,312.9c2.3,0,4.1,0.7,5.2,2.1c1.1,1.4,1.7,3.3,1.7,5.6v0.8h-3.3v-1c0-1.4-0.3-2.5-0.8-3.3
				c-0.6-0.8-1.5-1.1-2.7-1.1c-1.2,0-2.1,0.4-2.7,1.1c-0.6,0.8-0.8,1.8-0.8,3.2c0,1.1,0.3,2.1,0.8,3s1.2,1.6,1.9,2.4
				c0.8,0.7,1.6,1.4,2.5,2.1c0.9,0.7,1.7,1.4,2.5,2.3c0.8,0.8,1.4,1.8,1.9,2.8c0.5,1,0.8,2.3,0.8,3.7c0,2.3-0.6,4.2-1.7,5.6
				c-1.1,1.4-2.9,2.1-5.3,2.1c-2.4,0-4.1-0.7-5.2-2.1c-1.1-1.4-1.7-3.3-1.7-5.6v-1.8h3.2v1.9c0,1.4,0.3,2.5,0.9,3.3
				c0.6,0.8,1.5,1.1,2.7,1.1s2.1-0.4,2.7-1.1c0.6-0.8,0.9-1.8,0.9-3.3c0-1.1-0.3-2.1-0.8-3s-1.2-1.6-1.9-2.3
				c-0.8-0.7-1.6-1.4-2.5-2.1c-0.9-0.7-1.7-1.4-2.5-2.3c-0.8-0.8-1.4-1.8-1.9-2.8c-0.5-1-0.8-2.3-0.8-3.7c0-2.4,0.6-4.3,1.7-5.6
				C133.6,313.5,135.4,312.9,137.7,312.9z"/>
			<path fill="#FFFFFF" d="M152,344v-27.7h-5.7v-3.1h14.8v3.1h-5.7V344H152z"/>
		</g>
		<g>
			<path fill="#FFFFFF" d="M171.8,317.7c-0.6,0.4-1.3,0.7-2,0.9c-0.7,0.2-1.5,0.4-2.4,0.5v-2.9c0.8,0,1.6-0.2,2.2-0.4
				c0.6-0.2,1.1-0.6,1.5-0.9c0.4-0.4,0.8-0.8,1-1.3c0.3-0.5,0.5-1,0.7-1.6h2.5v31.9h-3.5V317.7z"/>
			<path fill="#FFFFFF" d="M183.8,309.8c1.4,0,2.5,0.4,3.1,1.3c0.7,0.8,1,2,1,3.4v0.5h-2v-0.6c0-0.8-0.2-1.5-0.5-2s-0.9-0.7-1.6-0.7
				s-1.3,0.2-1.6,0.7c-0.3,0.5-0.5,1.1-0.5,1.9c0,0.7,0.2,1.3,0.5,1.8s0.7,1,1.2,1.4c0.5,0.4,1,0.9,1.5,1.3c0.5,0.4,1,0.9,1.5,1.4
				s0.8,1.1,1.2,1.7c0.3,0.6,0.5,1.4,0.5,2.2c0,1.4-0.3,2.5-1,3.4s-1.7,1.3-3.2,1.3c-1.4,0-2.5-0.4-3.2-1.3s-1-2-1-3.4v-1.1h1.9v1.2
				c0,0.8,0.2,1.5,0.5,2c0.4,0.5,0.9,0.7,1.6,0.7s1.3-0.2,1.6-0.7c0.4-0.5,0.5-1.1,0.5-2c0-0.7-0.2-1.3-0.5-1.8
				c-0.3-0.5-0.7-1-1.2-1.4c-0.5-0.4-1-0.9-1.5-1.3c-0.5-0.4-1-0.9-1.5-1.4s-0.8-1.1-1.2-1.7s-0.5-1.4-0.5-2.2c0-1.4,0.3-2.6,1-3.4
				C181.4,310.2,182.4,309.8,183.8,309.8z"/>
			<path fill="#FFFFFF" d="M192.5,328.6v-16.7h-3.4V310h8.9v1.9h-3.4v16.7H192.5z"/>
			<path fill="#FFFFFF" d="M200,326.2h8.7v3.2H200V326.2z"/>
			<path fill="#FFFFFF" d="M219.3,311.6c2.5,0,4.3,0.7,5.5,2.2c1.2,1.5,1.7,3.4,1.7,5.9c0,1.6-0.3,3.1-0.8,4.3
				c-0.5,1.3-1.2,2.5-2,3.6c-0.8,1.1-1.7,2.1-2.6,3.1c-0.9,1-1.8,1.9-2.6,2.9s-1.5,2-2,3c-0.5,1-0.8,2.2-0.8,3.4v0.5h10.5v3.2h-14
				V341c0-1.7,0.3-3.2,0.8-4.5c0.5-1.3,1.2-2.5,2-3.6c0.8-1.1,1.7-2.1,2.6-3c0.9-1,1.8-1.9,2.6-2.9c0.8-1,1.5-2.1,2-3.2
				c0.5-1.2,0.8-2.5,0.8-4c0-1.6-0.3-2.9-0.9-3.7c-0.6-0.8-1.5-1.3-2.9-1.3c-1.3,0-2.3,0.4-2.8,1.3c-0.6,0.8-0.9,2-0.9,3.4v2.8h-3.3
				v-2.6c0-2.5,0.6-4.4,1.7-5.9C215.1,312.3,216.9,311.6,219.3,311.6z"/>
			<path fill="#FFFFFF" d="M230.9,328.6H229V310h2.6l4.3,13.4V310h1.8v18.6h-2.1l-4.8-15V328.6z"/>
			<path fill="#FFFFFF" d="M244.2,310c1.5,0,2.5,0.4,3.2,1.2s1,2,1,3.4v9.4c0,1.4-0.3,2.6-1,3.4c-0.7,0.8-1.7,1.2-3.2,1.2h-4.4V310
				H244.2z M244.2,326.7c0.7,0,1.3-0.2,1.7-0.7s0.5-1.1,0.5-2v-9.6c0-0.8-0.2-1.5-0.5-2c-0.4-0.5-0.9-0.7-1.7-0.7h-2.2v14.8H244.2z"
				/>
		</g>
	</g>
	<g>
		<g>
			<path fill="#FFFFFF" d="M72.4,381h-2v-32.5h2.8l9.8,27.4v-27.4h2V381h-2.4l-10.2-29V381z"/>
			<path fill="#FFFFFF" d="M88.5,356.4c0-4.7,2.2-8.2,7.1-8.2c5,0,7.2,3.5,7.2,8.2v16.6c0,4.7-2.2,8.2-7.2,8.2
				c-4.9,0-7.1-3.5-7.1-8.2V356.4z M90.6,373.2c0,3.5,1.4,6.1,5,6.1c3.6,0,5.1-2.6,5.1-6.1v-16.9c0-3.5-1.4-6.1-5.1-6.1
				c-3.6,0-5,2.6-5,6.1V373.2z"/>
			<path fill="#FFFFFF" d="M106.2,356.4c0-4.7,2.2-8.2,7.1-8.2c5,0,7.2,3.5,7.2,8.2v16.6c0,4.7-2.2,8.2-7.2,8.2
				c-4.9,0-7.1-3.5-7.1-8.2V356.4z M108.3,373.2c0,3.5,1.4,6.1,5,6.1c3.6,0,5.1-2.6,5.1-6.1v-16.9c0-3.5-1.4-6.1-5.1-6.1
				c-3.6,0-5,2.6-5,6.1V373.2z"/>
			<path fill="#FFFFFF" d="M126,381h-2v-32.5h2.8l9.8,27.4v-27.4h1.9V381h-2.4L126,352V381z"/>
		</g>
		<g>
			<path fill="#FFFFFF" d="M169.4,381h-1.8v-30.8h2.6l9.2,26v-26h1.8V381H179l-9.6-27.5V381z"/>
			<path fill="#FFFFFF" d="M184.6,357.7c0-4.5,2.1-7.8,6.7-7.8c4.8,0,6.8,3.3,6.8,7.8v15.8c0,4.5-2.1,7.8-6.8,7.8
				c-4.7,0-6.7-3.3-6.7-7.8V357.7z M186.6,373.6c0,3.3,1.3,5.8,4.7,5.8c3.4,0,4.8-2.5,4.8-5.8v-16c0-3.3-1.4-5.8-4.8-5.8
				c-3.4,0-4.7,2.5-4.7,5.8V373.6z"/>
			<path fill="#FFFFFF" d="M201.4,357.7c0-4.5,2.1-7.8,6.7-7.8c4.8,0,6.8,3.3,6.8,7.8v15.8c0,4.5-2.1,7.8-6.8,7.8
				c-4.7,0-6.7-3.3-6.7-7.8V357.7z M203.4,373.6c0,3.3,1.3,5.8,4.7,5.8c3.4,0,4.8-2.5,4.8-5.8v-16c0-3.3-1.4-5.8-4.8-5.8
				c-3.4,0-4.7,2.5-4.7,5.8V373.6z"/>
			<path fill="#FFFFFF" d="M220.2,381h-1.8v-30.8h2.6l9.2,26v-26h1.8V381h-2.2l-9.6-27.5V381z"/>
		</g>
		<g>
			<path fill="#FFFFFF" d="M147,374.8v-17.4h-3.9v-0.5h8.4v0.5h-3.9v17.4H147z"/>
			<path fill="#FFFFFF" d="M153,361.3c0-2.5,1.1-4.5,3.8-4.5c2.8,0,3.9,2,3.9,4.5v9.1c0,2.5-1.1,4.5-3.9,4.5c-2.7,0-3.8-2-3.8-4.5
				V361.3z M153.6,370.5c0,2.2,0.8,4,3.2,4c2.4,0,3.3-1.8,3.3-4v-9.2c0-2.2-0.9-4-3.3-4c-2.4,0-3.2,1.8-3.2,4V370.5z"/>
		</g>
	</g>
</g>
<g>
</g>
<g>
</g>
<g>
</g>
<g>
</g>
<g>
</g>
<g>
</g>
<g>
</g>
<g>
</g>
<g>
</g>
<g>
</g>
<g>
</g>
<g>
</g>
<g>
</g>
<g>
</g>
<g>
</g>
</svg>
