<?xml version="1.0" encoding="utf-8"?>
<!-- Generator: Adobe Illustrator 17.0.0, SVG Export Plug-In . SVG Version: 6.00 Build 0)  -->
<!DOCTYPE svg PUBLIC "-//W3C//DTD SVG 1.1//EN" "http://www.w3.org/Graphics/SVG/1.1/DTD/svg11.dtd">
<svg version="1.1" id="Layer_1" xmlns="http://www.w3.org/2000/svg" xmlns:xlink="http://www.w3.org/1999/xlink" x="0px" y="0px"
	 width="30.6px" height="30.6px" viewBox="0 0 30.6 30.6" enable-background="new 0 0 30.6 30.6" xml:space="preserve">
<g>
	<g>
		<g>
			<circle fill="#5D5F60" cx="15.3" cy="15.3" r="15.3"/>
		</g>
		<g>
			<circle fill="#0F0F0F" cx="15.3" cy="15.3" r="14.4"/>
		</g>
	</g>
	<polygon fill="#FFFFFF" points="18.2,12.3 15.5,16 19.5,19.8 23.1,17.1 	"/>
	<circle fill="#FFFFFF" cx="23.1" cy="12.3" r="5"/>
	<circle fill="#090A0A" cx="23.1" cy="12.4" r="3.7"/>
	<circle fill="#FFFFFF" cx="23" cy="12.3" r="2.5"/>
	<circle fill="#FFFFFF" cx="15.5" cy="20" r="4.2"/>
	<circle fill="#090A0A" cx="15.5" cy="20" r="2.9"/>
	<path fill="#FFFFFF" d="M15.6,21.1c-0.2,0.3-0.1,0.5-1,0.3l-13.1-3c-0.4-1.4-0.3-2.1-0.3-2.4c0,0,0-0.6,0-1.1l14.7,3.5
		c0.7,0.2,1.1,0.7,1,0.8L15.6,21.1z"/>
	<circle fill="#FFFFFF" cx="15.6" cy="19.9" r="1.6"/>
</g>
<g>
</g>
<g>
</g>
<g>
</g>
<g>
</g>
<g>
</g>
<g>
</g>
<g>
</g>
<g>
</g>
<g>
</g>
<g>
</g>
<g>
</g>
<g>
</g>
<g>
</g>
<g>
</g>
<g>
</g>
</svg>
