<?xml version="1.0" encoding="utf-8"?>
<!-- Generator: Adobe Illustrator 17.0.0, SVG Export Plug-In . SVG Version: 6.00 Build 0)  -->
<!DOCTYPE svg PUBLIC "-//W3C//DTD SVG 1.1//EN" "http://www.w3.org/Graphics/SVG/1.1/DTD/svg11.dtd">
<svg version="1.1" id="Layer_1" xmlns="http://www.w3.org/2000/svg" xmlns:xlink="http://www.w3.org/1999/xlink" x="0px" y="0px"
	 width="30.6px" height="30.6px" viewBox="0 0 30.6 30.6" enable-background="new 0 0 30.6 30.6" xml:space="preserve">
<g>
	<g>
		<circle fill="#357CB3" cx="15.3" cy="15.3" r="15.3"/>
	</g>
	<g>
		<circle fill="#55ACEE" cx="15.3" cy="15.3" r="14.4"/>
	</g>
	<path fill="#FFFFFF" d="M23.9,10.9c-0.6,0.3-1.3,0.5-2,0.6c0.7-0.4,1.3-1.1,1.6-2c-0.7,0.4-1.4,0.7-2.2,0.9
		c-0.6-0.7-1.6-1.1-2.6-1.1c-2,0-3.5,1.6-3.5,3.5c0,0.3,0,0.5,0.1,0.8c-2.9-0.1-5.5-1.6-7.3-3.7c-0.3,0.5-0.5,1.1-0.5,1.8
		C7.4,12.9,8,14,9,14.6c-0.6,0-1.1-0.2-1.6-0.4c0,0,0,0,0,0c0,1.7,1.2,3.1,2.8,3.5c-0.3,0.1-0.6,0.1-0.9,0.1c-0.2,0-0.4,0-0.7-0.1
		c0.4,1.4,1.8,2.4,3.3,2.5c-1.2,0.9-2.7,1.5-4.4,1.5c-0.3,0-0.6,0-0.8,0c1.6,1,3.4,1.6,5.4,1.6c6.5,0,10.1-5.4,10.1-10.1
		c0-0.2,0-0.3,0-0.5C22.9,12.3,23.5,11.6,23.9,10.9"/>
</g>
<g>
</g>
<g>
</g>
<g>
</g>
<g>
</g>
<g>
</g>
<g>
</g>
<g>
</g>
<g>
</g>
<g>
</g>
<g>
</g>
<g>
</g>
<g>
</g>
<g>
</g>
<g>
</g>
<g>
</g>
</svg>
